# xmcd
#
# Track frame offsets:
#   200
#   42575
#   76850
#   118400
#   149825
#   173825
#   203900
#   225725
#
# Disc length: 3542 seconds
#
# Revision: 0
# Processed by: cddbd v1.4PL0 Copyright (c) Steve Scherf et al.
# Submitted via: uFREEDB 1.6.2
#
DISCID=750dd408
DTITLE=Larry Goldings Trio - The Intimacy of the Blues
DYEAR=1991
DGENRE=Blues
TTITLE0=booker's little blues
TTITLE1=when johnny comes marching home
TTITLE2=intimacy of the blues
TTITLE3=ain't necessarily so
TTITLE4=skylark
TTITLE5=the acrobat
TTITLE6=pegasus
TTITLE7=jive coffee
EXTD=Larry Goldings: hammond b-3 organ, Peter Bernstein: Guitar, Bill Stewart: Drums,
EXTD=Special guest: David "Farthead" Newman: Tenorsaxophone
EXTT0=
EXTT1=
EXTT2=
EXTT3=
EXTT4=
EXTT5=
EXTT6=
EXTT7=
PLAYORDER=
